<svg xmlns="http://www.w3.org/2000/svg" xmlns:xlink="http://www.w3.org/1999/xlink" width="500" zoomAndPan="magnify" viewBox="0 0 375 374.999991" height="500" preserveAspectRatio="xMidYMid meet" version="1.0"><defs><g/><clipPath id="fd04b1e527"><path d="M 47 116 L 304 116 L 304 263 L 47 263 Z M 47 116 " clip-rule="nonzero"/></clipPath><clipPath id="e0dbb93dce"><path d="M 31.578125 171.027344 L 286.109375 100.957031 L 311.390625 192.789062 L 56.859375 262.859375 Z M 31.578125 171.027344 " clip-rule="nonzero"/></clipPath><clipPath id="3aaf9acf39"><path d="M 31.578125 171.027344 L 286.109375 100.957031 L 311.390625 192.789062 L 56.859375 262.859375 Z M 31.578125 171.027344 " clip-rule="nonzero"/></clipPath></defs><rect x="-37.5" width="450" fill="#ffffff" y="-37.499999" height="449.999989" fill-opacity="1"/><rect x="-37.5" width="450" fill="#1d419d" y="-37.499999" height="449.999989" fill-opacity="1"/><g clip-path="url(#fd04b1e527)"><g clip-path="url(#e0dbb93dce)"><g clip-path="url(#3aaf9acf39)"><path fill="#ffffff" d="M 302.527344 172.355469 C 304.265625 171.355469 303.144531 166.191406 302.992188 164.351562 C 301.949219 157.84375 299.710938 151.550781 296.578125 145.757812 C 285.132812 124.675781 261.285156 107.777344 237.8125 121.515625 C 226.03125 127.9375 216.867188 138.046875 208.332031 148.203125 C 196.96875 162.066406 186.746094 176.792969 174.554688 189.984375 C 152.539062 213.925781 113.929688 240.074219 80.078125 230.605469 C 87.929688 214.867188 95.054688 195.828125 94.472656 178.050781 C 94.355469 170.375 89.066406 165.644531 83.6875 173.210938 C 79.226562 180.320312 76.714844 188.632812 75.667969 196.929688 C 72.253906 188.867188 69.21875 180.132812 62.808594 173.902344 C 57.980469 169.113281 51.582031 170.457031 49.210938 176.851562 C 45.992188 185.734375 47.707031 195.730469 50.6875 204.457031 C 54.933594 216.847656 64.652344 227.347656 77.078125 231.757812 C 71.304688 241.574219 64.519531 250.796875 57.625 259.851562 C 57.105469 260.421875 56.429688 261.261719 57.175781 261.945312 C 57.570312 262.300781 58.273438 262.3125 58.621094 261.875 C 60.722656 259.25 62.742188 256.566406 64.710938 253.847656 C 69.648438 246.824219 74.839844 239.925781 79.046875 232.433594 C 111.527344 241.863281 147.632812 219.40625 170.175781 197.457031 C 180.488281 187.203125 189.484375 175.761719 198.300781 164.226562 C 212.582031 146.371094 231.492188 118.648438 256.683594 118.5625 C 276.027344 119.570312 291.449219 137.070312 298.148438 154.09375 C 299.9375 159.050781 301.324219 164.257812 301.382812 169.554688 C 301.394531 170.601562 300.683594 172.679688 302.527344 172.351562 Z M 78.097656 229.941406 C 63.949219 225.136719 53.9375 212.097656 50.828125 197.738281 C 49.367188 191.195312 47.554688 175.617188 55.710938 173.070312 C 63.449219 172.683594 68.796875 186.3125 71.53125 192.253906 C 72.882812 195.554688 74.324219 198.828125 75.457031 202.214844 C 75.53125 203.742188 75.648438 205.277344 76.058594 206.757812 C 76.304688 208.4375 78.242188 208.75 78.566406 206.992188 C 78.675781 204.660156 77.273438 202.527344 77.5 200.195312 C 77.375 193.910156 82.476562 173.09375 89.0625 171.445312 C 93.582031 171.839844 92.464844 182.863281 92.242188 186.175781 C 90.394531 201.488281 85.167969 216.238281 78.101562 229.945312 Z M 78.097656 229.941406 " fill-opacity="1" fill-rule="nonzero"/></g></g></g><g fill="#fcf9f2" fill-opacity="1"><g transform="translate(106.299417, 220.273962)"><g><path d="M 28.265625 -3.53125 L 26.453125 -14.796875 L 22.203125 -14.265625 L 23.21875 -2.890625 L 0.203125 -0.03125 L 2.234375 -90.640625 L 26.953125 -93.71875 L 51.296875 -6.40625 Z M 21.03125 -26.8125 L 24.4375 -27.234375 L 18.359375 -64.734375 L 17.5625 -64.640625 Z M 21.03125 -26.8125 "/></g></g></g><g fill="#fcf9f2" fill-opacity="1"><g transform="translate(218.352145, 221.39256)"><g><path d="M 23.828125 4.796875 C 16.378906 3.773438 10.960938 1.441406 7.578125 -2.203125 C 4.203125 -5.859375 2.941406 -10.78125 3.796875 -16.96875 L 8.625 -52.234375 C 9.476562 -58.410156 12.023438 -62.804688 16.265625 -65.421875 C 20.503906 -68.035156 26.347656 -68.832031 33.796875 -67.8125 C 41.191406 -66.800781 46.578125 -64.460938 49.953125 -60.796875 C 53.335938 -57.140625 54.601562 -52.222656 53.75 -46.046875 L 48.921875 -10.78125 C 48.066406 -4.59375 45.519531 -0.195312 41.28125 2.40625 C 37.039062 5.007812 31.222656 5.804688 23.828125 4.796875 Z M 25.890625 -10.21875 C 27.097656 -10.050781 27.8125 -10.789062 28.03125 -12.4375 L 33.1875 -50 C 33.414062 -51.644531 32.925781 -52.550781 31.71875 -52.71875 C 30.457031 -52.894531 29.710938 -52.160156 29.484375 -50.515625 L 24.328125 -12.953125 C 24.109375 -11.304688 24.628906 -10.394531 25.890625 -10.21875 Z M 25.890625 -10.21875 "/></g></g></g><g fill="#fcf9f2" fill-opacity="1"><g transform="translate(152.855777, 183.816717)"><g><path d="M 1.09375 0 L 1.09375 -57 L 15.890625 -57 L 15.890625 -10.4375 L 22.765625 -10.4375 L 22.765625 0 Z M 1.09375 0 "/></g></g></g><g fill="#ffffff" fill-opacity="1"><g transform="translate(174.772105, 204.384835)"><g><path d="M 21.140625 3.015625 C 14.472656 2.441406 9.566406 0.460938 6.421875 -2.921875 C 3.285156 -6.304688 1.976562 -11.023438 2.5 -17.078125 L 5.5625 -52.8125 C 6.082031 -58.882812 8.175781 -63.320312 11.84375 -66.125 C 15.507812 -68.925781 20.675781 -70.039062 27.34375 -69.46875 C 33.882812 -68.914062 38.707031 -67.179688 41.8125 -64.265625 C 44.914062 -61.347656 46.257812 -57.296875 45.84375 -52.109375 L 44.484375 -36.28125 L 26.109375 -37.921875 L 27.5625 -54.9375 C 27.644531 -55.925781 27.1875 -56.460938 26.1875 -56.546875 C 25.1875 -56.628906 24.644531 -56.175781 24.5625 -55.1875 L 20.65625 -9.59375 C 20.570312 -8.601562 21.046875 -8.0625 22.078125 -7.96875 C 22.671875 -7.925781 23.203125 -8.023438 23.671875 -8.265625 L 25.265625 -26.8125 L 23.859375 -26.9375 L 24.671875 -35.625 L 44.40625 -33.9375 L 41.453125 0.5 C 36.160156 2.875 29.390625 3.710938 21.140625 3.015625 Z M 21.140625 3.015625 "/></g></g></g><g fill="#fcf9f2" fill-opacity="1"><g transform="translate(244.638951, 142.778873)"><g><path d="M 1.984375 -11.453125 L 5.765625 -10.71875 L 6.828125 -2.3125 L 10.71875 -9.765625 L 14.21875 -9.09375 L 15.03125 -0.734375 L 19.140625 -8.140625 L 22.921875 -7.40625 L 16.140625 3.109375 L 12.640625 2.4375 L 11.734375 -5.640625 L 7.859375 1.515625 L 4.390625 0.84375 Z M 1.984375 -11.453125 "/></g></g></g><g fill="#fcf9f2" fill-opacity="1"><g transform="translate(263.413053, 146.565274)"><g><path d="M 9.328125 -2.5 L 6.40625 -4.828125 C 7.269531 -5.898438 8.363281 -6.375 9.6875 -6.25 C 11.007812 -6.125 12.519531 -5.390625 14.21875 -4.046875 C 14.832031 -3.554688 15.378906 -3.046875 15.859375 -2.515625 C 16.347656 -1.984375 16.71875 -1.414062 16.96875 -0.8125 C 17.21875 -0.21875 17.289062 0.398438 17.1875 1.046875 C 17.082031 1.691406 16.742188 2.375 16.171875 3.09375 L 12.578125 7.625 C 12.328125 7.9375 12.148438 8.210938 12.046875 8.453125 C 11.941406 8.703125 11.925781 8.957031 12 9.21875 L 11.84375 9.421875 L 8.734375 6.953125 L 9.375 5.859375 C 8.507812 5.890625 7.6875 5.765625 6.90625 5.484375 C 6.125 5.203125 5.34375 4.753906 4.5625 4.140625 C 3.269531 3.109375 2.488281 2.035156 2.21875 0.921875 C 1.957031 -0.179688 2.1875 -1.179688 2.90625 -2.078125 C 3.65625 -3.015625 4.539062 -3.394531 5.5625 -3.21875 C 6.59375 -3.050781 7.878906 -2.453125 9.421875 -1.421875 C 10.253906 -0.859375 10.953125 -0.382812 11.515625 0 C 12.078125 0.375 12.546875 0.601562 12.921875 0.6875 C 13.296875 0.769531 13.617188 0.644531 13.890625 0.3125 C 14.429688 -0.375 14.003906 -1.273438 12.609375 -2.390625 C 11.921875 -2.929688 11.3125 -3.21875 10.78125 -3.25 C 10.25 -3.289062 9.765625 -3.039062 9.328125 -2.5 Z M 12.140625 2.515625 C 11.734375 2.441406 11.316406 2.273438 10.890625 2.015625 C 10.460938 1.753906 9.988281 1.46875 9.46875 1.15625 C 8.613281 0.59375 7.925781 0.210938 7.40625 0.015625 C 6.894531 -0.179688 6.460938 -0.0625 6.109375 0.375 C 5.835938 0.71875 5.753906 1.101562 5.859375 1.53125 C 5.960938 1.96875 6.25 2.375 6.71875 2.75 C 7.675781 3.507812 8.632812 3.890625 9.59375 3.890625 C 10.550781 3.898438 11.316406 3.546875 11.890625 2.828125 Z M 12.140625 2.515625 "/></g></g></g><g fill="#fcf9f2" fill-opacity="1"><g transform="translate(274.91717, 155.599687)"><g><path d="M 10.046875 -5.8125 L 11.96875 -2.359375 L 6.875 4.09375 L 15.1875 3.46875 L 17.078125 6.859375 L 4.171875 7.53125 L 2.53125 4.578125 Z M 10.046875 -5.8125 "/></g></g></g><g fill="#fcf9f2" fill-opacity="1"><g transform="translate(281.434567, 166.500234)"><g><path d="M 5.5 14 C 4.132812 13.6875 3.015625 12.992188 2.140625 11.921875 C 1.273438 10.847656 0.738281 9.457031 0.53125 7.75 C 0.351562 6.332031 0.453125 5.070312 0.828125 3.96875 C 1.203125 2.863281 1.816406 1.972656 2.671875 1.296875 C 3.535156 0.628906 4.597656 0.21875 5.859375 0.0625 C 7.117188 -0.09375 8.238281 0.0507812 9.21875 0.5 C 10.207031 0.945312 11.015625 1.65625 11.640625 2.625 C 12.273438 3.601562 12.679688 4.8125 12.859375 6.25 C 13.128906 8.488281 12.765625 10.273438 11.765625 11.609375 C 10.773438 12.953125 9.21875 13.753906 7.09375 14.015625 L 6.625 14.0625 L 5.421875 4.203125 C 4.578125 4.304688 3.9375 4.660156 3.5 5.265625 C 3.0625 5.878906 2.894531 6.609375 3 7.453125 C 3.082031 8.140625 3.300781 8.707031 3.65625 9.15625 C 4.019531 9.613281 4.476562 9.914062 5.03125 10.0625 Z M 7.8125 4.03125 L 8.515625 9.8125 C 9.222656 9.675781 9.753906 9.320312 10.109375 8.75 C 10.460938 8.1875 10.59375 7.484375 10.5 6.640625 C 10.394531 5.816406 10.097656 5.171875 9.609375 4.703125 C 9.128906 4.242188 8.53125 4.019531 7.8125 4.03125 Z M 7.8125 4.03125 "/></g></g></g></svg>